<?xml version="1.0" encoding="UTF-8"?>
<svg width="80px" height="31px" viewBox="0 0 80 31" version="1.1" xmlns="http://www.w3.org/2000/svg" xmlns:xlink="http://www.w3.org/1999/xlink">
    <title>Group 23</title>
    <g id="Design" stroke="none" stroke-width="1" fill="none" fill-rule="evenodd" opacity="0.2">
        <g id="03-design-mock" transform="translate(-1803.000000, -889.000000)" fill="#FFFFFF" fill-rule="nonzero">
            <g id="Group-24" transform="translate(1755.000000, 0.000000)">
                <g id="Group-23" transform="translate(48.000000, 889.000000)">
                    <g id="icons8-nfc_tag" transform="translate(0.000000, 4.411583)">
                        <path d="M12.0875077,0.022697572 L8.72077966,1.01448645 C8.72077966,1.01448645 13.6232082,6.23790789 13.6232082,12.1555815 C13.6232082,18.0732552 8.72077966,23.2966766 8.72077966,23.2966766 L12.0875077,24.2884655 C12.0875077,24.2884655 17.403394,18.7220502 17.403394,12.1555815 C17.403394,5.58911293 12.0875077,0.022697572 12.0875077,0.022697572 Z M3.75928576,2.56828903 L0.392557759,3.56007791 C0.392557759,3.56007791 4.17274359,7.60988251 4.17274359,12.1555815 C4.17274359,16.7012806 0.392557759,20.7510852 0.392557759,20.7510852 L3.75928576,21.742874 C3.75928576,21.742874 7.95292942,17.3459433 7.95292942,12.1555815 C7.95292942,6.96521973 3.75928576,2.56828903 3.75928576,2.56828903 Z" id="Shape"></path>
                    </g>
                    <g id="icons8-identity_theft" transform="translate(26.563075, 0.330147)">
                        <path d="M35.6339633,0.967741935 C34.3926171,0.980639109 32.8883956,1.02577509 31.4279873,1.12249811 C29.9675789,1.21922113 28.5582854,1.39332224 27.3388439,1.68993741 C26.7254724,1.83824582 26.1559141,1.9672093 25.5863539,2.3089621 C25.4403131,2.39278795 25.2650641,2.48951097 25.1190233,2.61847445 L0,2.61847445 L0,29.0301946 L41.1250986,29.0301946 L41.1250986,27.3278767 C41.7019603,27.3794621 42.3153318,27.3794621 42.9944212,27.3794621 L52.3410346,27.3794621 L52.3410346,24.0779971 L42.9944212,24.0779971 C41.5924292,24.0779971 41.103192,24.0393089 40.4825189,23.8200702 C40.6650695,23.8845527 39.7085034,23.4718696 38.6716126,22.9947039 C37.6347236,22.5175399 36.2546363,21.9049629 34.9329673,21.292386 C33.6112982,20.6798091 32.3042323,20.0736815 31.2527383,19.5900681 C30.2012443,19.1064546 29.6827988,18.822735 29.0913339,18.6099457 C28.229694,18.3004333 27.8061746,17.5137569 28.1566726,16.7528716 C28.5071706,15.9919879 29.456437,15.617993 30.3180769,15.9275053 C30.7708045,16.0887093 40.4241026,19.6416535 40.4241026,19.6416535 L42.9944212,20.5701905 L42.9944212,17.5266525 L41.1250986,7.31274503 L40.8914332,6.28103721 L39.7815229,5.97152486 L33.4141426,4.37237774 C35.3856948,4.30789683 37.5397957,4.27565472 38.2626983,4.26920696 C40.0955112,4.2627592 41.2711394,4.67544233 42.1765926,5.30091478 C43.0820457,5.92638723 43.7392304,6.84202875 44.2795806,7.77701355 C44.9367653,8.91189215 45.7618955,10.7689662 46.9083156,12.4196987 C47.4851773,13.245065 48.1423601,14.0381908 49.0113036,14.6894559 C49.880247,15.3407211 51.0339686,15.8243345 52.3410346,15.8243345 L52.3410346,12.5228695 C52.0781611,12.5228695 51.807986,12.4648364 51.4063732,12.1617718 C51.0047605,11.8587072 50.5739414,11.3170606 50.1212139,10.6657954 C49.2157607,9.36326515 48.4052336,7.65449783 47.6093116,6.28103721 C46.9375237,5.12036591 45.9736542,3.77269798 44.4548296,2.72164523 C42.9360049,1.67059248 40.8403185,0.954846413 38.2626983,0.967741935 C37.8610855,0.967741935 36.8753113,0.954846413 35.6339633,0.967741935 Z M3.73864533,5.91993947 L25.8784356,5.91993947 L37.5617023,8.86030676 L38.7884452,15.4632368 C35.9917628,14.4379768 32.2750241,13.0838611 31.7200689,12.8839673 C28.9818028,11.9102926 25.8127177,13.0967566 24.7101089,15.5148222 C23.6075002,17.9328878 24.9510759,20.7313945 27.6893419,21.7050691 C27.5140929,21.647036 28.5217756,22.0532713 29.5586646,22.5304354 C30.5955555,23.0076011 31.9172245,23.6201764 33.2388936,24.2327533 C34.3999187,24.7679521 35.4806208,25.283806 36.4517919,25.7287296 L3.73864533,25.7287296 L3.73864533,5.91993947 Z M14.9545813,9.2214045 C11.8804222,9.2214045 9.34661331,11.4589212 9.34661331,14.173602 C9.34661331,15.2955851 9.79203739,16.3337407 10.51494,17.1655547 C8.69673207,18.3713636 7.47729065,20.2800231 7.47729065,22.4272646 L11.215936,22.4272646 C11.215936,20.5830877 12.8661983,19.1257996 14.9545813,19.1257996 C17.0429661,19.1257996 18.6932266,20.5830877 18.6932266,22.4272646 L22.431872,22.4272646 C22.431872,20.2800231 21.2124305,18.3713636 19.3942226,17.1655547 C20.1171252,16.3337407 20.5625493,15.2955851 20.5625493,14.173602 C20.5625493,11.4589212 18.0287404,9.2214045 14.9545813,9.2214045 Z M14.9545813,12.5228695 C16.0060753,12.5228695 16.823904,13.245065 16.823904,14.173602 C16.823904,15.1021391 16.0060753,15.8243345 14.9545813,15.8243345 C13.9030873,15.8243345 13.0852586,15.1021391 13.0852586,14.173602 C13.0852586,13.245065 13.9030873,12.5228695 14.9545813,12.5228695 Z" id="Shape"></path>
                    </g>
                </g>
            </g>
        </g>
    </g>
</svg>