<?xml version="1.0" encoding="UTF-8"?>
<svg width="390px" height="40px" viewBox="0 0 390 40" version="1.1" xmlns="http://www.w3.org/2000/svg" xmlns:xlink="http://www.w3.org/1999/xlink">
    <title>Group 7 Copy</title>
    <defs>
        <filter id="filter-1">
            <feColorMatrix in="SourceGraphic" type="matrix" values="0 0 0 0 1.000000 0 0 0 0 1.000000 0 0 0 0 1.000000 0 0 0 1.000000 0"></feColorMatrix>
        </filter>
        <filter id="filter-2">
            <feColorMatrix in="SourceGraphic" type="matrix" values="0 0 0 0 0.000000 0 0 0 0 0.000000 0 0 0 0 0.000000 0 0 0 1.000000 0"></feColorMatrix>
        </filter>
    </defs>
    <g id="Design" stroke="none" stroke-width="1" fill="none" fill-rule="evenodd">
        <g id="Group-7-Copy" transform="translate(-65.000000, -40.000000)" filter="url(#filter-1)">
            <g transform="translate(65.000000, 40.000000)">
                <path d="M220.4,0 L220.556893,0.0155354594 L220.887119,0.0859486906 L238.282929,5.4846609 L240,6.00724763 L240,32.8766074 L238.428062,33.400121 L221.002982,39.8589466 L220.702982,39.9589466 L220.45,40 L219.55,40 L219.297018,39.9589466 L218.971938,39.850121 L201.597018,33.4089466 L200,32.8766074 L200,6.00724763 L201.712881,5.48594869 L219.193107,0.0655354594 L219.6,0 L220.4,0 Z M219.756893,1.58446454 L219.587119,1.61405131 L202.182929,7.0153391 L201.6,7.192 L201.6,31.7232 L202.128062,31.899879 L219.502982,38.3410534 L219.6816,38.4 L220.3168,38.4 L220.471938,38.349879 L237.897018,31.8910534 L238.4,31.7216 L238.4,7.192 L237.812881,7.01405131 L220.493107,1.63446454 L220.312,1.5984 L219.756893,1.58446454 Z M204.822901,31.1711816 L220,25.9540538 L235.177099,31.1711816 L220,36.8033081 L204.822901,31.1711816 Z M220,27.6448 L209.5744,31.2272 L220,35.096 L230.424,31.2272 L220,27.6448 Z M219.2,3.46544939 L219.2,24.5709462 L203.2,30.0709462 L203.2,8.40989384 L219.2,3.46544939 Z M220.8,24.5709462 L220.8,3.46544939 L236.8,8.40989384 L236.8,30.0709462 L230.4,27.8709462 L230.4,13.4832 L225.6,11.9456 L225.6,26.2209462 L220.8,24.5709462 Z M217.6,5.6336 L204.8,9.5888 L204.8,27.8272 L217.6,23.4288 L217.6,5.6336 Z M222.4,5.6336 L222.4,23.4288 L224,23.9792 L224,9.75371187 L232,12.3162119 L232,26.728 L235.2,27.8272 L235.2,9.5888 L222.4,5.6336 Z M216,9.96184727 L216,19.8963692 L208,23.0213692 L208,12.4618473 L216,9.96184727 Z M214.4,12.1376 L209.6,13.6368 L209.6,20.6784 L214.4,18.8032 L214.4,12.1376 Z" id="Shape" fill="#021324" fill-rule="nonzero"></path>
                <path d="M254.909804,15.568672 C255.453595,15.568672 255.984314,15.5157019 256.501961,15.4097616 C257.019608,15.3038214 257.445752,15.1290201 257.780392,14.8853575 L257.780392,14.8853575 L257.341176,13.1055619 C257.100654,13.2538782 256.818301,13.3757094 256.494118,13.4710556 C256.169935,13.5664018 255.772549,13.6140749 255.301961,13.6140749 C254.8,13.6140749 254.35817,13.5213772 253.976471,13.3359818 C253.594771,13.1505865 253.275817,12.8910329 253.019608,12.5573212 C252.763399,12.2236095 252.572549,11.8210367 252.447059,11.3496027 C252.321569,10.8781687 252.258824,10.3564132 252.258824,9.78433598 C252.258824,8.47067726 252.522876,7.50132425 253.05098,6.87627696 C253.579085,6.25122966 254.277124,5.93870602 255.145098,5.93870602 C255.615686,5.93870602 256.015686,5.96519107 256.345098,6.01816118 C256.67451,6.07113129 256.959477,6.15588347 257.2,6.27241771 L257.2,6.27241771 L257.623529,4.42905789 C257.341176,4.31252365 256.983007,4.21188044 256.54902,4.12712826 C256.115033,4.04237609 255.584314,4 254.956863,4 C254.371242,4 253.785621,4.0979947 253.2,4.29398411 C252.614379,4.48997351 252.08366,4.81309118 251.607843,5.26333712 C251.132026,5.71358305 250.745098,6.30684828 250.447059,7.0431328 C250.14902,7.77941733 250,8.69315172 250,9.78433598 C250,10.8331442 250.133333,11.7256905 250.4,12.461975 C250.666667,13.1982596 251.024837,13.7968218 251.47451,14.2576617 C251.924183,14.7185017 252.444444,15.0522134 253.035294,15.2587968 C253.626144,15.4653802 254.25098,15.568672 254.909804,15.568672 Z M261.309804,15.568672 C261.895425,15.568672 262.402614,15.4362467 262.831373,15.1713961 C263.260131,14.9065456 263.594771,14.5728339 263.835294,14.1702611 L263.835294,14.1702611 L263.898039,14.1702611 L264.258824,15.3461975 L265.796078,15.3461975 C265.712418,15.0071888 265.649673,14.6284525 265.607843,14.2099886 C265.566013,13.7915248 265.545098,13.3651154 265.545098,12.9307605 L265.545098,12.9307605 L265.545098,7.40068104 L263.505882,7.40068104 L263.505882,12.5334847 C263.380392,12.8724934 263.189542,13.158532 262.933333,13.3916005 C262.677124,13.6246689 262.355556,13.7412032 261.968627,13.7412032 C261.529412,13.7412032 261.233987,13.5981839 261.082353,13.3121453 C260.930719,13.0261067 260.854902,12.5599697 260.854902,11.9137344 L260.854902,11.9137344 L260.854902,7.40068104 L258.815686,7.40068104 L258.815686,12.3427923 C258.815686,12.9678396 258.870588,13.4869467 258.980392,13.9001135 C259.090196,14.3132804 259.249673,14.641695 259.458824,14.8853575 C259.667974,15.1290201 259.929412,15.3038214 260.243137,15.4097616 C260.556863,15.5157019 260.912418,15.568672 261.309804,15.568672 Z M269.576471,15.568672 C270.59085,15.568672 271.351634,15.338252 271.858824,14.877412 C272.366013,14.4165721 272.619608,13.7835793 272.619608,12.9784336 C272.619608,12.5122966 272.530719,12.1309118 272.352941,11.8342792 C272.175163,11.5376466 271.955556,11.2966326 271.694118,11.1112372 C271.43268,10.9258418 271.145098,10.774877 270.831373,10.6583428 C270.517647,10.5418086 270.230065,10.4332198 269.968627,10.3325766 C269.70719,10.2319334 269.487582,10.1233447 269.309804,10.0068104 C269.132026,9.8902762 269.043137,9.73666288 269.043137,9.54597049 C269.043137,9.0692395 269.346405,8.83087401 269.952941,8.83087401 C270.329412,8.83087401 270.700654,8.88384412 271.066667,8.98978434 C271.43268,9.09572456 271.735948,9.19636776 271.976471,9.29171396 L271.976471,9.29171396 L272.431373,7.79795687 C272.159477,7.63904654 271.783007,7.49602724 271.301961,7.36889898 C270.820915,7.24177072 270.282353,7.17820658 269.686275,7.17820658 C268.818301,7.17820658 268.154248,7.38479001 267.694118,7.79795687 C267.233987,8.21112372 267.003922,8.80968596 267.003922,9.59364359 C267.003922,10.0703746 267.09281,10.4597049 267.270588,10.7616345 C267.448366,11.0635641 267.667974,11.3125236 267.929412,11.5085131 C268.19085,11.7045025 268.478431,11.8581158 268.792157,11.969353 C269.105882,12.0805902 269.393464,12.189179 269.654902,12.2951192 C269.91634,12.4010594 270.135948,12.5175936 270.313725,12.6447219 C270.491503,12.7718502 270.580392,12.9413545 270.580392,13.153235 C270.580392,13.4286795 270.488889,13.6246689 270.305882,13.7412032 C270.122876,13.8577374 269.879739,13.9160045 269.576471,13.9160045 C269.15817,13.9160045 268.750327,13.8497919 268.352941,13.7173666 C267.955556,13.5849414 267.636601,13.4498676 267.396078,13.3121453 L267.396078,13.3121453 L266.831373,14.8535755 C267.134641,15.0442679 267.529412,15.2111237 268.015686,15.354143 C268.501961,15.4971623 269.022222,15.568672 269.576471,15.568672 Z M276.321569,15.568672 C276.708497,15.568672 277.090196,15.5209989 277.466667,15.4256527 C277.843137,15.3303065 278.172549,15.2137722 278.454902,15.0760499 L278.454902,15.0760499 L278.094118,13.4869467 C277.905882,13.5716988 277.735948,13.635263 277.584314,13.677639 C277.43268,13.7200151 277.252288,13.7412032 277.043137,13.7412032 C276.739869,13.7412032 276.533333,13.6220204 276.423529,13.3836549 C276.313725,13.1452894 276.258824,12.7506621 276.258824,12.199773 L276.258824,12.199773 L276.258824,9.14869467 L278.172549,9.14869467 L278.172549,7.40068104 L276.258824,7.40068104 L276.258824,5.31895573 L274.219608,5.90692395 L274.219608,7.40068104 L273.137255,7.40068104 L273.137255,9.14869467 L274.219608,9.14869467 L274.219608,13.153235 C274.219608,14.0113507 274.389542,14.6284525 274.729412,15.0045403 C275.069281,15.3806281 275.6,15.568672 276.321569,15.568672 Z M282.67451,15.568672 C283.845752,15.568672 284.752941,15.2058267 285.396078,14.4801362 C286.039216,13.7544457 286.360784,12.7188801 286.360784,11.3734393 C286.360784,10.748392 286.284967,10.1763148 286.133333,9.65720772 C285.981699,9.13810064 285.754248,8.69580023 285.45098,8.33030647 C285.147712,7.96481271 284.766013,7.68142263 284.305882,7.48013621 C283.845752,7.27884979 283.301961,7.17820658 282.67451,7.17820658 C281.503268,7.17820658 280.593464,7.54105184 279.945098,8.26674234 C279.296732,8.99243284 278.972549,10.0279985 278.972549,11.3734393 C278.972549,11.9984866 279.048366,12.5705638 279.2,13.0896708 C279.351634,13.6087779 279.581699,14.0510783 279.890196,14.4165721 C280.198693,14.7820658 280.583007,15.0654559 281.043137,15.2667423 C281.503268,15.4680288 282.047059,15.568672 282.67451,15.568672 Z M282.67451,13.8206583 C282.392157,13.8206583 282.14902,13.7597427 281.945098,13.6379115 C281.741176,13.5160802 281.576471,13.3439274 281.45098,13.1214529 C281.32549,12.8989784 281.231373,12.6394249 281.168627,12.3427923 C281.105882,12.0461597 281.07451,11.723042 281.07451,11.3734393 C281.07451,10.5047295 281.215686,9.87968218 281.498039,9.49829739 C281.780392,9.1169126 282.172549,8.9262202 282.67451,8.9262202 C283.249673,8.9262202 283.657516,9.15134317 283.898039,9.6015891 C284.138562,10.051835 284.258824,10.6424518 284.258824,11.3734393 C284.258824,12.220961 284.128105,12.8407113 283.866667,13.2326901 C283.605229,13.6246689 283.207843,13.8206583 282.67451,13.8206583 Z M289.811765,15.3461975 L289.811765,10.0544835 C289.926797,9.74725691 290.094118,9.49564888 290.313725,9.29965948 C290.533333,9.10367007 290.820915,9.00567537 291.176471,9.00567537 C291.605229,9.00567537 291.887582,9.15928869 292.023529,9.46651532 C292.159477,9.77374196 292.227451,10.292849 292.227451,11.0238365 L292.227451,11.0238365 L292.227451,15.3461975 L294.266667,15.3461975 L294.266667,10.1339387 C294.371242,9.78433598 294.530719,9.50889141 294.745098,9.30760499 C294.959477,9.10631858 295.249673,9.00567537 295.615686,9.00567537 C296.065359,9.00567537 296.355556,9.16193719 296.486275,9.47446084 C296.616993,9.78698449 296.682353,10.25577 296.682353,10.8808173 L296.682353,10.8808173 L296.682353,15.3461975 L298.721569,15.3461975 L298.721569,10.5788876 C298.721569,9.91146425 298.67451,9.3605751 298.580392,8.9262202 C298.486275,8.4918653 298.342484,8.14491109 298.14902,7.88535755 C297.955556,7.62580401 297.704575,7.44305713 297.396078,7.33711691 C297.087582,7.23117669 296.713725,7.17820658 296.27451,7.17820658 C295.741176,7.17820658 295.286275,7.30003784 294.909804,7.54370034 C294.533333,7.78736285 294.224837,8.11577753 293.984314,8.52894438 C293.806536,8.04161937 293.55817,7.69466515 293.239216,7.48808173 C292.920261,7.2814983 292.509804,7.17820658 292.007843,7.17820658 C291.422222,7.17820658 290.943791,7.30533485 290.572549,7.55959137 C290.201307,7.8138479 289.895425,8.11048051 289.654902,8.44948922 L289.654902,8.44948922 L289.592157,8.44948922 L289.356863,7.40068104 L287.772549,7.40068104 L287.772549,15.3461975 L289.811765,15.3461975 Z M303.678431,15.568672 C304.284967,15.568672 304.857516,15.4812713 305.396078,15.3064699 C305.934641,15.1316686 306.360784,14.9171396 306.67451,14.6628831 L306.67451,14.6628831 L306,13.3121453 C305.822222,13.4498676 305.563399,13.5849414 305.223529,13.7173666 C304.88366,13.8497919 304.499346,13.9160045 304.070588,13.9160045 C303.380392,13.9160045 302.881046,13.7465002 302.572549,13.4074915 C302.264052,13.0684828 302.094118,12.5652667 302.062745,11.8978434 L302.062745,11.8978434 L306.768627,11.8978434 C306.820915,11.6223988 306.860131,11.3575482 306.886275,11.1032917 C306.912418,10.8490352 306.92549,10.6106697 306.92549,10.3881952 C306.92549,9.77374196 306.836601,9.2599319 306.658824,8.84676504 C306.481046,8.43359818 306.245752,8.1051835 305.952941,7.861521 C305.660131,7.61785849 305.32549,7.44305713 304.94902,7.33711691 C304.572549,7.23117669 304.185621,7.17820658 303.788235,7.17820658 C302.596078,7.17820658 301.670588,7.52780931 301.011765,8.22701476 C300.352941,8.9262202 300.023529,9.97502838 300.023529,11.3734393 C300.023529,12.676504 300.31634,13.7014756 300.901961,14.4483541 C301.487582,15.1952327 302.413072,15.568672 303.678431,15.568672 Z M305.027451,10.6106697 L302.109804,10.6106697 C302.162092,10.0703746 302.31634,9.63866818 302.572549,9.31555051 C302.828758,8.99243284 303.223529,8.83087401 303.756863,8.83087401 C304.216993,8.83087401 304.554248,8.98448733 304.768627,9.29171396 C304.983007,9.5989406 305.069281,10.0385925 305.027451,10.6106697 L305.027451,10.6106697 Z M310.407843,15.3461975 L310.407843,10.2133939 C310.491503,9.90616723 310.656209,9.65455921 310.901961,9.45856981 C311.147712,9.2625804 311.453595,9.1645857 311.819608,9.1645857 C312.081046,9.1645857 312.373856,9.22285282 312.698039,9.33938706 L312.698039,9.33938706 L312.964706,7.40068104 C312.619608,7.2841468 312.311111,7.22587968 312.039216,7.22587968 C311.631373,7.22587968 311.275817,7.3318199 310.972549,7.54370034 C310.669281,7.75558078 310.428758,8.0575104 310.25098,8.44948922 L310.25098,8.44948922 L310.188235,8.44948922 L309.952941,7.40068104 L308.368627,7.40068104 L308.368627,15.3461975 L310.407843,15.3461975 Z M324.478431,15.3461975 L324.478431,13.4074915 L320.039216,13.4074915 L320.039216,10.6901249 L324.007843,10.6901249 L324.007843,8.75141884 L320.039216,8.75141884 L320.039216,6.16118048 L324.4,6.16118048 L324.4,4.22247446 L317.890196,4.22247446 L317.890196,15.3461975 L324.478431,15.3461975 Z M327.490196,15.3461975 L328.698039,13.4392736 L329.2,12.2633371 L329.670588,13.4392736 L330.878431,15.3461975 L333.247059,15.3461975 L330.721569,11.2145289 L333.090196,7.40068104 L330.878431,7.40068104 L329.811765,9.10102157 L329.341176,10.2133939 L328.901961,9.10102157 L327.882353,7.40068104 L325.45098,7.40068104 L327.803922,11.2780931 L325.262745,15.3461975 L327.490196,15.3461975 Z M336.305882,18.5244041 L336.305882,15.2667423 C336.515033,15.3726826 336.724183,15.4494892 336.933333,15.4971623 C337.142484,15.5448354 337.40915,15.568672 337.733333,15.568672 C338.308497,15.568672 338.818301,15.4680288 339.262745,15.2667423 C339.70719,15.0654559 340.08366,14.7741203 340.392157,14.3927355 C340.700654,14.0113507 340.933333,13.5478623 341.090196,13.0022701 C341.247059,12.456678 341.32549,11.8448733 341.32549,11.1668558 C341.32549,9.76844495 341.079739,8.75406735 340.588235,8.12372304 C340.096732,7.49337874 339.359477,7.17820658 338.376471,7.17820658 C337.843137,7.17820658 337.39085,7.27355278 337.019608,7.46424518 C336.648366,7.65493757 336.326797,7.95157019 336.054902,8.35414302 L336.054902,8.35414302 L335.992157,8.35414302 L335.756863,7.40068104 L334.266667,7.40068104 L334.266667,18.5244041 L336.305882,18.5244041 Z M337.466667,13.8206583 C337.184314,13.8206583 336.956863,13.7862278 336.784314,13.7173666 C336.611765,13.6485055 336.452288,13.5558078 336.305882,13.4392736 L336.305882,13.4392736 L336.305882,10.1339387 C336.431373,9.73136587 336.606536,9.42943625 336.831373,9.22814983 C337.056209,9.02686341 337.36732,8.9262202 337.764706,8.9262202 C338.277124,8.9262202 338.648366,9.1169126 338.878431,9.49829739 C339.108497,9.87968218 339.223529,10.4199773 339.223529,11.1191827 C339.223529,12.0832387 339.077124,12.7744987 338.784314,13.1929625 C338.491503,13.6114264 338.052288,13.8206583 337.466667,13.8206583 Z M346.015686,15.568672 C346.622222,15.568672 347.194771,15.4812713 347.733333,15.3064699 C348.271895,15.1316686 348.698039,14.9171396 349.011765,14.6628831 L349.011765,14.6628831 L348.337255,13.3121453 C348.159477,13.4498676 347.900654,13.5849414 347.560784,13.7173666 C347.220915,13.8497919 346.836601,13.9160045 346.407843,13.9160045 C345.717647,13.9160045 345.218301,13.7465002 344.909804,13.4074915 C344.601307,13.0684828 344.431373,12.5652667 344.4,11.8978434 L344.4,11.8978434 L349.105882,11.8978434 C349.15817,11.6223988 349.197386,11.3575482 349.223529,11.1032917 C349.249673,10.8490352 349.262745,10.6106697 349.262745,10.3881952 C349.262745,9.77374196 349.173856,9.2599319 348.996078,8.84676504 C348.818301,8.43359818 348.583007,8.1051835 348.290196,7.861521 C347.997386,7.61785849 347.662745,7.44305713 347.286275,7.33711691 C346.909804,7.23117669 346.522876,7.17820658 346.12549,7.17820658 C344.933333,7.17820658 344.007843,7.52780931 343.34902,8.22701476 C342.690196,8.9262202 342.360784,9.97502838 342.360784,11.3734393 C342.360784,12.676504 342.653595,13.7014756 343.239216,14.4483541 C343.824837,15.1952327 344.750327,15.568672 346.015686,15.568672 Z M347.364706,10.6106697 L344.447059,10.6106697 C344.499346,10.0703746 344.653595,9.63866818 344.909804,9.31555051 C345.166013,8.99243284 345.560784,8.83087401 346.094118,8.83087401 C346.554248,8.83087401 346.891503,8.98448733 347.105882,9.29171396 C347.320261,9.5989406 347.406536,10.0385925 347.364706,10.6106697 L347.364706,10.6106697 Z M352.745098,15.3461975 L352.745098,10.2133939 C352.828758,9.90616723 352.993464,9.65455921 353.239216,9.45856981 C353.484967,9.2625804 353.79085,9.1645857 354.156863,9.1645857 C354.418301,9.1645857 354.711111,9.22285282 355.035294,9.33938706 L355.035294,9.33938706 L355.301961,7.40068104 C354.956863,7.2841468 354.648366,7.22587968 354.376471,7.22587968 C353.968627,7.22587968 353.613072,7.3318199 353.309804,7.54370034 C353.006536,7.75558078 352.766013,8.0575104 352.588235,8.44948922 L352.588235,8.44948922 L352.52549,8.44948922 L352.290196,7.40068104 L350.705882,7.40068104 L350.705882,15.3461975 L352.745098,15.3461975 Z M357.372549,6.24063564 C357.769935,6.24063564 358.091503,6.13734393 358.337255,5.9307605 C358.583007,5.72417707 358.705882,5.46727204 358.705882,5.1600454 C358.705882,4.85281877 358.583007,4.59061672 358.337255,4.37343927 C358.091503,4.15626182 357.769935,4.0476731 357.372549,4.0476731 C356.975163,4.0476731 356.664052,4.15626182 356.439216,4.37343927 C356.214379,4.59061672 356.101961,4.85281877 356.101961,5.1600454 C356.101961,5.46727204 356.214379,5.72417707 356.439216,5.9307605 C356.664052,6.13734393 356.975163,6.24063564 357.372549,6.24063564 Z M358.439216,15.3461975 L358.439216,7.40068104 L356.4,7.40068104 L356.4,15.3461975 L358.439216,15.3461975 Z M363.709804,15.568672 C364.31634,15.568672 364.888889,15.4812713 365.427451,15.3064699 C365.966013,15.1316686 366.392157,14.9171396 366.705882,14.6628831 L366.705882,14.6628831 L366.031373,13.3121453 C365.853595,13.4498676 365.594771,13.5849414 365.254902,13.7173666 C364.915033,13.8497919 364.530719,13.9160045 364.101961,13.9160045 C363.411765,13.9160045 362.912418,13.7465002 362.603922,13.4074915 C362.295425,13.0684828 362.12549,12.5652667 362.094118,11.8978434 L362.094118,11.8978434 L366.8,11.8978434 C366.852288,11.6223988 366.891503,11.3575482 366.917647,11.1032917 C366.943791,10.8490352 366.956863,10.6106697 366.956863,10.3881952 C366.956863,9.77374196 366.867974,9.2599319 366.690196,8.84676504 C366.512418,8.43359818 366.277124,8.1051835 365.984314,7.861521 C365.691503,7.61785849 365.356863,7.44305713 364.980392,7.33711691 C364.603922,7.23117669 364.216993,7.17820658 363.819608,7.17820658 C362.627451,7.17820658 361.701961,7.52780931 361.043137,8.22701476 C360.384314,8.9262202 360.054902,9.97502838 360.054902,11.3734393 C360.054902,12.676504 360.347712,13.7014756 360.933333,14.4483541 C361.518954,15.1952327 362.444444,15.568672 363.709804,15.568672 Z M365.058824,10.6106697 L362.141176,10.6106697 C362.193464,10.0703746 362.347712,9.63866818 362.603922,9.31555051 C362.860131,8.99243284 363.254902,8.83087401 363.788235,8.83087401 C364.248366,8.83087401 364.585621,8.98448733 364.8,9.29171396 C365.014379,9.5989406 365.100654,10.0385925 365.058824,10.6106697 L365.058824,10.6106697 Z M370.439216,15.3461975 L370.439216,10.1975028 C370.554248,9.85849414 370.745098,9.57510405 371.011765,9.34733258 C371.278431,9.1195611 371.605229,9.00567537 371.992157,9.00567537 C372.431373,9.00567537 372.742484,9.14869467 372.92549,9.43473326 C373.108497,9.72077185 373.2,10.1869088 373.2,10.8331442 L373.2,10.8331442 L373.2,15.3461975 L375.239216,15.3461975 L375.239216,10.4040863 C375.239216,9.78963299 375.186928,9.27317442 375.082353,8.85471056 C374.977778,8.43624669 374.820915,8.1051835 374.611765,7.861521 C374.402614,7.61785849 374.146405,7.44305713 373.843137,7.33711691 C373.539869,7.23117669 373.194771,7.17820658 372.807843,7.17820658 C372.180392,7.17820658 371.667974,7.30533485 371.270588,7.55959137 C370.873203,7.8138479 370.554248,8.11048051 370.313725,8.44948922 L370.313725,8.44948922 L370.25098,8.44948922 L370.015686,7.40068104 L368.4,7.40068104 L368.4,15.3461975 L370.439216,15.3461975 Z M379.992157,15.568672 C380.462745,15.568672 380.920261,15.5077563 381.364706,15.3859251 C381.80915,15.2640938 382.188235,15.086644 382.501961,14.8535755 L382.501961,14.8535755 L382.031373,13.2803632 C381.843137,13.4074915 381.628758,13.5160802 381.388235,13.6061294 C381.147712,13.6961786 380.854902,13.7412032 380.509804,13.7412032 C380.196078,13.7412032 379.921569,13.6802876 379.686275,13.5584563 C379.45098,13.436625 379.260131,13.2697692 379.113725,13.0578888 C378.96732,12.8460083 378.857516,12.5970488 378.784314,12.3110102 C378.711111,12.0249716 378.67451,11.712448 378.67451,11.3734393 C378.67451,10.5471056 378.820915,9.94589482 379.113725,9.56980704 C379.406536,9.19371926 379.835294,9.00567537 380.4,9.00567537 C380.703268,9.00567537 380.972549,9.03745743 381.207843,9.10102157 C381.443137,9.1645857 381.681046,9.25463488 381.921569,9.37116913 L381.921569,9.37116913 L382.407843,7.68671964 C382.12549,7.53840333 381.80915,7.41657208 381.458824,7.32122588 C381.108497,7.22587968 380.645752,7.17820658 380.070588,7.17820658 C378.930719,7.17820658 378.062745,7.54105184 377.466667,8.26674234 C376.870588,8.99243284 376.572549,10.0279985 376.572549,11.3734393 C376.572549,11.9984866 376.63268,12.5705638 376.752941,13.0896708 C376.873203,13.6087779 377.069281,14.0510783 377.341176,14.4165721 C377.613072,14.7820658 377.966013,15.0654559 378.4,15.2667423 C378.833987,15.4680288 379.364706,15.568672 379.992157,15.568672 Z M386.752941,15.568672 C387.359477,15.568672 387.932026,15.4812713 388.470588,15.3064699 C389.00915,15.1316686 389.435294,14.9171396 389.74902,14.6628831 L389.74902,14.6628831 L389.07451,13.3121453 C388.896732,13.4498676 388.637908,13.5849414 388.298039,13.7173666 C387.95817,13.8497919 387.573856,13.9160045 387.145098,13.9160045 C386.454902,13.9160045 385.955556,13.7465002 385.647059,13.4074915 C385.338562,13.0684828 385.168627,12.5652667 385.137255,11.8978434 L385.137255,11.8978434 L389.843137,11.8978434 C389.895425,11.6223988 389.934641,11.3575482 389.960784,11.1032917 C389.986928,10.8490352 390,10.6106697 390,10.3881952 C390,9.77374196 389.911111,9.2599319 389.733333,8.84676504 C389.555556,8.43359818 389.320261,8.1051835 389.027451,7.861521 C388.734641,7.61785849 388.4,7.44305713 388.023529,7.33711691 C387.647059,7.23117669 387.260131,7.17820658 386.862745,7.17820658 C385.670588,7.17820658 384.745098,7.52780931 384.086275,8.22701476 C383.427451,8.9262202 383.098039,9.97502838 383.098039,11.3734393 C383.098039,12.676504 383.39085,13.7014756 383.976471,14.4483541 C384.562092,15.1952327 385.487582,15.568672 386.752941,15.568672 Z M388.101961,10.6106697 L385.184314,10.6106697 C385.236601,10.0703746 385.39085,9.63866818 385.647059,9.31555051 C385.903268,8.99243284 386.298039,8.83087401 386.831373,8.83087401 C387.291503,8.83087401 387.628758,8.98448733 387.843137,9.29171396 C388.057516,9.5989406 388.143791,10.0385925 388.101961,10.6106697 L388.101961,10.6106697 Z M252.494118,35.7775255 L252.494118,31.2167991 L253.623529,31.4233825 L256.117647,35.7775255 L258.596078,35.7775255 L256.086275,31.5346198 L255.317647,31.0419977 C256.018301,30.8195233 256.577778,30.4222474 256.996078,29.8501703 C257.414379,29.2780931 257.623529,28.5365115 257.623529,27.6254257 C257.623529,27.0109724 257.505882,26.4998108 257.270588,26.091941 C257.035294,25.6840711 256.721569,25.363602 256.329412,25.1305335 C255.937255,24.897465 255.49281,24.7332577 254.996078,24.6379115 C254.499346,24.5425653 253.994771,24.4948922 253.482353,24.4948922 C253.262745,24.4948922 253.022222,24.5001892 252.760784,24.5107832 C252.499346,24.5213772 252.230065,24.5372683 251.952941,24.5584563 C251.675817,24.5796443 251.398693,24.6087779 251.121569,24.645857 C250.844444,24.6829361 250.585621,24.7226636 250.345098,24.7650397 L250.345098,24.7650397 L250.345098,35.7775255 L252.494118,35.7775255 Z M253.403922,29.738933 L252.494118,29.738933 L252.494118,26.5130533 C252.60915,26.4812713 252.773856,26.4600832 252.988235,26.4494892 C253.202614,26.4388952 253.419608,26.4335982 253.639216,26.4335982 C254.203922,26.4335982 254.63268,26.568672 254.92549,26.8388195 C255.218301,27.1089671 255.364706,27.4824064 255.364706,27.9591373 C255.364706,28.5947787 255.186928,29.0503216 254.831373,29.3257662 C254.475817,29.6012107 254,29.738933 253.403922,29.738933 L253.403922,29.738933 Z M262.313725,36 C263.484967,36 264.392157,35.6371547 265.035294,34.9114642 C265.678431,34.1857737 266,33.1502081 266,31.8047673 C266,31.17972 265.924183,30.6076428 265.772549,30.0885358 C265.620915,29.5694287 265.393464,29.1271283 265.090196,28.7616345 C264.786928,28.3961407 264.405229,28.1127507 263.945098,27.9114642 C263.484967,27.7101778 262.941176,27.6095346 262.313725,27.6095346 C261.142484,27.6095346 260.23268,27.9723799 259.584314,28.6980704 C258.935948,29.4237609 258.611765,30.4593265 258.611765,31.8047673 C258.611765,32.4298146 258.687582,33.0018918 258.839216,33.5209989 C258.99085,34.0401059 259.220915,34.4824064 259.529412,34.8479001 C259.837908,35.2133939 260.222222,35.496784 260.682353,35.6980704 C261.142484,35.8993568 261.686275,36 262.313725,36 Z M262.313725,34.2519864 C262.031373,34.2519864 261.788235,34.1910708 261.584314,34.0692395 C261.380392,33.9474082 261.215686,33.7752554 261.090196,33.5527809 C260.964706,33.3303065 260.870588,33.0707529 260.807843,32.7741203 C260.745098,32.4774877 260.713725,32.15437 260.713725,31.8047673 C260.713725,30.9360575 260.854902,30.3110102 261.137255,29.9296254 C261.419608,29.5482406 261.811765,29.3575482 262.313725,29.3575482 C262.888889,29.3575482 263.296732,29.5826712 263.537255,30.0329171 C263.777778,30.4831631 263.898039,31.0737798 263.898039,31.8047673 C263.898039,32.6522891 263.76732,33.2720393 263.505882,33.6640182 C263.244444,34.055997 262.847059,34.2519864 262.313725,34.2519864 Z M270.737255,36 C271.908497,36 272.815686,35.6371547 273.458824,34.9114642 C274.101961,34.1857737 274.423529,33.1502081 274.423529,31.8047673 C274.423529,31.17972 274.347712,30.6076428 274.196078,30.0885358 C274.044444,29.5694287 273.816993,29.1271283 273.513725,28.7616345 C273.210458,28.3961407 272.828758,28.1127507 272.368627,27.9114642 C271.908497,27.7101778 271.364706,27.6095346 270.737255,27.6095346 C269.566013,27.6095346 268.656209,27.9723799 268.007843,28.6980704 C267.359477,29.4237609 267.035294,30.4593265 267.035294,31.8047673 C267.035294,32.4298146 267.111111,33.0018918 267.262745,33.5209989 C267.414379,34.0401059 267.644444,34.4824064 267.952941,34.8479001 C268.261438,35.2133939 268.645752,35.496784 269.105882,35.6980704 C269.566013,35.8993568 270.109804,36 270.737255,36 Z M270.737255,34.2519864 C270.454902,34.2519864 270.211765,34.1910708 270.007843,34.0692395 C269.803922,33.9474082 269.639216,33.7752554 269.513725,33.5527809 C269.388235,33.3303065 269.294118,33.0707529 269.231373,32.7741203 C269.168627,32.4774877 269.137255,32.15437 269.137255,31.8047673 C269.137255,30.9360575 269.278431,30.3110102 269.560784,29.9296254 C269.843137,29.5482406 270.235294,29.3575482 270.737255,29.3575482 C271.312418,29.3575482 271.720261,29.5826712 271.960784,30.0329171 C272.201307,30.4831631 272.321569,31.0737798 272.321569,31.8047673 C272.321569,32.6522891 272.19085,33.2720393 271.929412,33.6640182 C271.667974,34.055997 271.270588,34.2519864 270.737255,34.2519864 Z M277.87451,35.7775255 L277.87451,30.4858116 C277.989542,30.1785849 278.156863,29.9269769 278.376471,29.7309875 C278.596078,29.5349981 278.88366,29.4370034 279.239216,29.4370034 C279.667974,29.4370034 279.950327,29.5906167 280.086275,29.8978434 C280.222222,30.20507 280.290196,30.7241771 280.290196,31.4551646 L280.290196,31.4551646 L280.290196,35.7775255 L282.329412,35.7775255 L282.329412,30.5652667 C282.433987,30.215664 282.593464,29.9402194 282.807843,29.738933 C283.022222,29.5376466 283.312418,29.4370034 283.678431,29.4370034 C284.128105,29.4370034 284.418301,29.5932652 284.54902,29.9057889 C284.679739,30.2183125 284.745098,30.687098 284.745098,31.3121453 L284.745098,31.3121453 L284.745098,35.7775255 L286.784314,35.7775255 L286.784314,31.0102157 C286.784314,30.3427923 286.737255,29.7919031 286.643137,29.3575482 C286.54902,28.9231933 286.405229,28.5762391 286.211765,28.3166856 C286.018301,28.057132 285.76732,27.8743852 285.458824,27.7684449 C285.150327,27.6625047 284.776471,27.6095346 284.337255,27.6095346 C283.803922,27.6095346 283.34902,27.7313659 282.972549,27.9750284 C282.596078,28.2186909 282.287582,28.5471056 282.047059,28.9602724 C281.869281,28.4729474 281.620915,28.1259932 281.301961,27.9194098 C280.983007,27.7128263 280.572549,27.6095346 280.070588,27.6095346 C279.484967,27.6095346 279.006536,27.7366629 278.635294,27.9909194 C278.264052,28.2451759 277.95817,28.5418086 277.717647,28.8808173 L277.717647,28.8808173 L277.654902,28.8808173 L277.419608,27.8320091 L275.835294,27.8320091 L275.835294,35.7775255 L277.87451,35.7775255 Z" id="CustomerExperienceRoom" fill="#021324" fill-rule="nonzero" transform="translate(320.000000, 20.000000) rotate(-360.000000) translate(-320.000000, -20.000000) "></path>
                <g filter="url(#filter-2)" id="Group-10">
                    <g transform="translate(0.000000, 6.000000)">
                        <path d="M5.47788732,1.63424829e-13 C8.17735915,1.63424829e-13 9.58697183,1.25900766 10.7443662,3.0780198 C11.218883,3.82118404 13.3005807,7.77763515 15.3794895,11.7722847 L15.9286178,12.828403 C18.0552613,16.9220347 20.028414,20.7592681 20.091831,20.876539 C20.2082394,21.0990706 20.3848592,21.2674729 20.5547887,21.171243 C20.7066549,21.0730083 20.7227113,20.800357 20.7066549,20.5009751 C20.6926056,20.1441226 20.616338,18.3478314 20.616338,17.137607 L20.616338,17.137607 L20.616338,0.292030971 L26.6776056,0.292030971 L26.6776056,20.4916194 C26.6776056,26.505319 23.704507,27.6246596 21.1970423,27.6246596 C18.4989085,27.6246596 17.0899648,26.3496137 15.9305634,24.539289 C15.2352162,23.4450731 13.4274046,20.0345241 11.5849086,16.4872376 L11.2281528,15.7995439 C11.1092828,15.5701337 10.9905578,15.3407397 10.8722673,15.1119472 L10.5189888,14.4279591 C8.46917706,10.4553831 6.64106123,6.84625327 6.58577465,6.73742848 C6.46602113,6.51489687 6.29408451,6.34649457 6.12014085,6.4474023 C5.96760563,6.53360824 5.95556338,6.81628352 5.96760563,7.11700192 C5.98098592,7.4758592 6.05725352,9.26680428 6.05725352,10.4756922 L6.05725352,10.4756922 L6.05725352,27.3165904 L-6.76791956e-13,27.3165904 L-6.76791956e-13,7.12301628 C-6.76791956e-13,1.10731194 2.96975352,1.63424829e-13 5.47788732,1.63424829e-13 Z M52.25475,0.299782822 L52.25475,5.98336041 L43.5769683,5.98336041 L43.5769683,27.3103087 L37.4320739,27.3103087 L37.4320739,5.98336041 L28.7549613,5.98336041 L28.7549613,0.299782822 L52.25475,0.299782822 Z M77.7082606,0.299782822 L77.7082606,5.98336041 L69.0318169,5.98336041 L69.0318169,27.3103087 L62.8835775,27.3103087 L62.8835775,5.98336041 L54.2091408,5.98336041 L54.2091408,0.299782822 L77.7082606,0.299782822 Z M163.371968,0.299782822 L163.371968,5.98336041 L154.687496,5.98336041 L154.687496,27.3103087 L148.545947,27.3103087 L148.545947,5.98336041 L139.866158,5.98336041 L139.866158,0.299782822 L163.371968,0.299782822 Z M129.88875,0.300116954 C136.380194,0.300116954 138.630757,2.74595987 138.630757,9.55088292 L138.630757,9.55088292 L138.630757,27.3046284 L120.32787,27.3046284 C115.409278,27.3046284 112.960687,25.101365 112.960687,19.584185 L112.960687,19.584185 L112.960687,18.3078025 C112.960687,12.949669 115.322306,10.5780033 120.068961,10.5780033 L120.068961,10.5780033 L132.554102,10.5780033 L132.554102,10.5780033 L132.554006,10.1975482 C132.553981,10.1588889 132.553951,10.1197119 132.553914,10.080933 L132.553003,9.69330831 C132.552759,9.65142614 132.55246,9.62578914 132.552095,9.6237236 C132.552095,7.03487238 131.689736,6.03114122 129.479313,6.03114122 L129.479313,6.03114122 L114.417799,6.03114122 L114.417799,0.300116954 Z M180.896257,0.300116954 C187.402419,0.300116954 189.64094,2.74595987 189.64094,9.55088292 L189.64094,9.55088292 L189.64094,27.3046284 L171.341398,27.3046284 C166.42682,27.3046284 163.975553,25.101365 163.975553,19.584185 L163.975553,19.584185 L163.975553,18.3078025 C163.975553,12.949669 166.337842,10.5780033 171.085835,10.5780033 L171.085835,10.5780033 L183.569637,10.5780033 L183.569637,9.6237236 C183.569637,7.03487238 182.702595,6.03114122 180.498194,6.03114122 L180.498194,6.03114122 L165.430658,6.03114122 L165.430658,0.300116954 Z M101.631803,0.299582344 C107.827542,0.299582344 110.57719,2.68327679 110.57719,9.76686555 L110.57719,9.76686555 L110.57719,17.8468346 C110.57719,24.04297 108.50057,27.3047621 101.916803,27.3047621 L101.916803,27.3047621 L85.1800775,27.3047621 L85.1800775,0.299582344 Z M101.223704,6.05265929 L91.3249718,6.05265929 L91.3249718,21.559036 L101.223704,21.559036 C103.434127,21.559036 104.303845,20.5599827 104.303845,17.9651171 L104.303845,17.9651171 L104.303845,9.64858298 C104.303845,7.05705872 103.434127,6.05265929 101.223704,6.05265929 L101.223704,6.05265929 Z M132.552095,16.0243475 L120.968785,16.0243475 C120.026813,16.0243475 118.994525,16.4253053 118.994525,18.7475196 C118.994525,21.0610464 120.036849,21.5361814 120.968785,21.5361814 L120.968785,21.5361814 L132.552095,21.5361814 L132.552095,16.0243475 Z M183.569637,16.0243475 L171.980975,16.0243475 C171.039673,16.0243475 170.006046,16.4253053 170.006046,18.7475196 C170.006046,21.0610464 171.051046,21.5361814 171.980975,21.5361814 L171.980975,21.5361814 L183.569637,21.5361814 L183.569637,16.0243475 Z" id="Combined-Shape" fill="#021324"></path>
                    </g>
                </g>
            </g>
        </g>
    </g>
</svg>